<?xml version="1.0" standalone="no"?>
<!DOCTYPE svg PUBLIC "-//W3C//DTD SVG 20010904//EN"
 "http://www.w3.org/TR/2001/REC-SVG-20010904/DTD/svg10.dtd">
<svg version="1.0" xmlns="http://www.w3.org/2000/svg"
 width="512.000000pt" height="512.000000pt" viewBox="0 0 512.000000 512.000000"
 preserveAspectRatio="xMidYMid meet">

<g transform="translate(0.000000,512.000000) scale(0.100000,-0.100000)"
fill="#000000" stroke="none">
<path d="M2165 5106 c-89 -29 -153 -82 -196 -166 -21 -40 -24 -62 -27 -192
l-4 -147 -456 -3 -457 -3 -59 -30 c-71 -36 -129 -99 -156 -171 -18 -50 -20
-78 -20 -344 l0 -290 105 0 105 0 2 -1767 3 -1768 27 -50 c34 -65 101 -127
164 -151 47 -18 95 -19 1369 -19 1274 0 1322 1 1369 19 63 24 130 86 164 151
l27 50 3 1768 2 1767 105 0 105 0 0 290 c0 272 -1 293 -22 347 -32 86 -105
155 -193 182 -64 20 -89 21 -500 21 l-433 0 -4 148 c-3 136 -5 151 -30 197
-34 64 -90 118 -153 147 -49 23 -57 23 -425 25 -283 2 -385 -1 -415 -11z m758
-207 c50 -26 57 -46 57 -176 l0 -123 -415 0 -415 0 0 123 c0 129 7 149 55 175
28 16 688 16 718 1z m1178 -547 l29 -32 0 -175 0 -175 -1565 0 -1565 0 0 174
c0 162 1 175 21 200 12 15 31 32 43 36 11 5 693 8 1514 7 l1494 -2 29 -33z
m-181 -2334 c0 -1636 -2 -1744 -18 -1764 -9 -12 -27 -27 -39 -33 -16 -8 -378
-11 -1298 -11 -1374 0 -1317 -2 -1345 49 -7 13 -10 586 -10 1760 l0 1741 1355
0 1355 0 0 -1742z"/>
<path d="M1884 3221 c-17 -11 -36 -34 -43 -52 -8 -23 -11 -354 -11 -1186 0
-1268 -3 -1205 60 -1238 44 -23 92 -13 124 26 l26 31 0 1185 0 1185 -34 34
c-39 39 -75 44 -122 15z"/>
<path d="M2525 3231 c-11 -5 -29 -19 -40 -31 -20 -22 -20 -36 -20 -1216 l0
-1194 28 -27 c39 -40 105 -40 144 0 l28 27 0 1195 0 1195 -26 25 c-27 28 -82
40 -114 26z"/>
<path d="M3138 3223 c-14 -9 -31 -27 -37 -40 -8 -17 -11 -383 -11 -1203 l0
-1178 26 -31 c50 -59 140 -46 170 24 21 51 21 2329 0 2380 -25 58 -95 81 -148
48z"/>
</g>
</svg>
