<?xml version="1.0" standalone="no"?>
<!DOCTYPE svg PUBLIC "-//W3C//DTD SVG 20010904//EN"
 "http://www.w3.org/TR/2001/REC-SVG-20010904/DTD/svg10.dtd">
<svg version="1.0" xmlns="http://www.w3.org/2000/svg"
 width="500.000000pt" height="500.000000pt" viewBox="0 0 500.000000 500.000000"
 preserveAspectRatio="xMidYMid meet">

<g transform="translate(0.000000,500.000000) scale(0.100000,-0.100000)"
fill="#000000" stroke="none">
<path d="M1910 4689 c-572 -71 -1055 -404 -1319 -910 -263 -504 -251 -1124 32
-1617 80 -139 162 -246 277 -362 116 -115 223 -197 362 -277 545 -312 1239
-292 1763 52 l69 46 656 -656 655 -655 143 143 142 142 -649 649 -650 650 49
61 c144 180 263 432 315 663 130 574 -37 1159 -450 1577 -250 253 -565 418
-915 479 -113 20 -375 29 -480 15z m481 -218 c606 -122 1067 -591 1186 -1206
24 -125 24 -406 0 -530 -66 -339 -243 -652 -487 -862 -207 -179 -458 -299
-725 -349 -138 -26 -392 -26 -530 0 -546 102 -993 492 -1159 1011 -57 176 -70
266 -70 465 0 259 47 462 157 677 233 457 659 750 1187 817 79 10 347 -4 441
-23z"/>
</g>
</svg>
