<?xml version="1.0" standalone="no"?>
<!DOCTYPE svg PUBLIC "-//W3C//DTD SVG 20010904//EN"
 "http://www.w3.org/TR/2001/REC-SVG-20010904/DTD/svg10.dtd">
<svg version="1.0" xmlns="http://www.w3.org/2000/svg"
 width="512.000000pt" height="512.000000pt" viewBox="0 0 512.000000 512.000000"
 preserveAspectRatio="xMidYMid meet">

<g transform="translate(0.000000,512.000000) scale(0.100000,-0.100000)"
fill="#000000" stroke="none">
<path d="M3933 5110 c-56 -13 -142 -72 -212 -146 -90 -94 -157 -184 -145 -192
6 -4 193 -150 417 -324 223 -175 409 -318 411 -318 3 0 37 44 75 98 97 135
142 234 149 322 8 119 -1 130 -279 348 -132 103 -257 195 -277 204 -39 18 -85
21 -139 8z m90 -131 c41 -22 457 -351 467 -369 14 -26 12 -61 -5 -111 -19 -53
-94 -179 -107 -179 -5 0 -148 109 -318 241 l-310 242 30 34 c47 54 131 124
164 139 39 17 52 17 79 3z"/>
<path d="M3389 4553 c-46 -58 -90 -114 -97 -124 -11 -16 29 -50 395 -335 225
-175 413 -321 420 -326 7 -6 41 30 105 112 51 66 93 126 93 132 0 13 -803 646
-821 647 -6 1 -49 -47 -95 -106z m427 -314 c165 -127 303 -235 309 -240 15
-14 -31 -55 -47 -42 -168 128 -599 467 -603 473 -8 13 18 51 31 46 7 -3 146
-109 310 -237z"/>
<path d="M1930 2683 c-689 -884 -1253 -1613 -1254 -1619 -1 -6 185 -156 412
-334 344 -268 416 -320 427 -309 39 43 2498 3206 2499 3215 1 9 -814 654 -826
654 -2 0 -568 -723 -1258 -1607z m1600 1176 c273 -213 308 -243 297 -258 -84
-117 -2342 -3001 -2349 -3001 -5 0 -148 109 -318 241 -272 213 -308 244 -297
258 79 111 2342 3001 2349 3001 5 0 148 -109 318 -241z"/>
<path d="M616 989 c-10 -28 -126 -785 -126 -817 0 -102 103 -188 201 -168 30
6 758 322 771 334 3 4 -176 149 -398 322 -476 371 -442 346 -448 329z m350
-420 c135 -106 242 -195 237 -200 -4 -4 -127 -60 -273 -124 -225 -99 -267
-115 -287 -106 -13 6 -23 19 -23 30 0 10 20 146 45 301 25 155 45 284 45 286
0 11 31 -11 256 -187z"/>
</g>
</svg>
